<svg id="Layer_1" data-name="Layer 1" xmlns="http://www.w3.org/2000/svg" width="1280" height="372.09" viewBox="0 0 1280 372.09"><defs><style>.cls-1{fill:#12173a;}.cls-2{font-size:104.63px;fill:#fff;font-family:SulphurPoint-Regular, Sulphur Point;}.cls-3{letter-spacing:-0.03em;}.cls-4{letter-spacing:-0.01em;}.cls-5{letter-spacing:-0.02em;}.cls-6,.cls-7,.cls-8{font-size:104.85px;font-family:SulphurPoint-Bold, Sulphur Point;font-weight:700;}.cls-6{letter-spacing:-0.03em;}.cls-8{letter-spacing:-0.02em;}.cls-9{fill:#fe2360;}.cls-10,.cls-11,.cls-9{fill-rule:evenodd;}.cls-10{fill:#fdd246;}.cls-11{fill:#ffede1;}</style></defs><title>Artboard 1</title><rect class="cls-1" width="1280" height="372.09" rx="74.29"/><text class="cls-2" transform="translate(217.86 214.74)"><tspan class="cls-3">R</tspan><tspan class="cls-4" x="46.24" y="0">e</tspan><tspan class="cls-5" x="106.3" y="0">ac</tspan><tspan x="219.19" y="0">t</tspan><tspan class="cls-6" x="252.14" y="0">R</tspan><tspan class="cls-7" x="300.06" y="0">enderMan</tspan><tspan class="cls-8" x="769.05" y="0">a</tspan><tspan class="cls-7" x="829.33" y="0">ger</tspan></text><path class="cls-9" d="M141.49,180.74,173.22,149,205,180.74l-31.73,31.73Zm21.16,0,10.57-10.58,10.58,10.58-10.58,10.57Z"/><path class="cls-10" d="M99.19,181.69,130.92,150l31.73,31.73-31.73,31.73Zm21.15,0,10.58-10.57,10.57,10.57-10.57,10.58Z"/><path class="cls-11" d="M58.79,181.69l30.78,30.78,30.77-30.78L89.57,150.92Zm30.78-10.25L79.31,181.69,89.57,192l10.25-10.26Z"/></svg>